<svg width="12" height="12" viewBox="0 0 12 12" fill="none" xmlns="http://www.w3.org/2000/svg">
<path d="M6.00098 11.375C3.03598 11.375 0.625977 8.965 0.625977 6C0.625977 3.035 3.03598 0.625 6.00098 0.625C6.20598 0.625 6.37598 0.795 6.37598 1C6.37598 1.205 6.20598 1.375 6.00098 1.375C3.45098 1.375 1.37598 3.45 1.37598 6C1.37598 8.55 3.45098 10.625 6.00098 10.625C8.55098 10.625 10.626 8.55 10.626 6C10.626 5.795 10.796 5.625 11.001 5.625C11.206 5.625 11.376 5.795 11.376 6C11.376 8.965 8.96598 11.375 6.00098 11.375Z" fill="#292D32"/>
<path d="M6.49973 5.875C6.40473 5.875 6.30973 5.83999 6.23473 5.765C6.08973 5.62 6.08973 5.38 6.23473 5.235L10.3347 1.135C10.4797 0.989995 10.7197 0.989995 10.8647 1.135C11.0097 1.28 11.0097 1.52 10.8647 1.665L6.76473 5.765C6.68973 5.83999 6.59473 5.875 6.49973 5.875Z" fill="#292D32"/>
<path d="M11 3.79C10.795 3.79 10.625 3.62 10.625 3.415V1.375H8.58496C8.37996 1.375 8.20996 1.205 8.20996 1C8.20996 0.795 8.37996 0.625 8.58496 0.625H11C11.205 0.625 11.375 0.795 11.375 1V3.415C11.375 3.62 11.205 3.79 11 3.79Z" fill="#292D32"/>
</svg>
