<svg width="12" height="12" viewBox="0 0 12 12" fill="none" xmlns="http://www.w3.org/2000/svg">
<path d="M8.89598 11.3751H3.10598C1.73598 11.3751 0.625977 10.2601 0.625977 8.89011V5.18511C0.625977 4.50511 1.04598 3.65011 1.58598 3.23011L4.28098 1.13011C5.09098 0.500109 6.38598 0.470109 7.22598 1.06011L10.316 3.22511C10.911 3.64011 11.376 4.53011 11.376 5.25511V8.89511C11.376 10.2601 10.266 11.3751 8.89598 11.3751ZM4.74098 1.72011L2.04598 3.82011C1.69098 4.10011 1.37598 4.73511 1.37598 5.18511V8.89011C1.37598 9.84511 2.15098 10.6251 3.10598 10.6251H8.89598C9.85098 10.6251 10.626 9.85011 10.626 8.89511V5.25511C10.626 4.77511 10.281 4.11011 9.88598 3.84011L6.79598 1.67511C6.22598 1.27511 5.28598 1.29511 4.74098 1.72011Z" fill="#292D32"/>
<path d="M6.00098 9.375C5.79598 9.375 5.62598 9.205 5.62598 9V7.5C5.62598 7.295 5.79598 7.125 6.00098 7.125C6.20598 7.125 6.37598 7.295 6.37598 7.5V9C6.37598 9.205 6.20598 9.375 6.00098 9.375Z" fill="#292D32"/>
</svg>
