<svg width="25" height="25" viewBox="0 0 25 25" fill="none" xmlns="http://www.w3.org/2000/svg">
<path d="M21.875 5.46869H3.125C2.69792 5.46869 2.34375 5.11452 2.34375 4.68744C2.34375 4.26036 2.69792 3.90619 3.125 3.90619H21.875C22.3021 3.90619 22.6562 4.26036 22.6562 4.68744C22.6562 5.11452 22.3021 5.46869 21.875 5.46869Z" fill="#292D32"/>
<path d="M21.875 10.6771H3.125C2.69792 10.6771 2.34375 10.323 2.34375 9.89587C2.34375 9.46879 2.69792 9.11462 3.125 9.11462H21.875C22.3021 9.11462 22.6562 9.46879 22.6562 9.89587C22.6562 10.323 22.3021 10.6771 21.875 10.6771Z" fill="#292D32"/>
<path d="M21.875 15.8854H3.125C2.69792 15.8854 2.34375 15.5313 2.34375 15.1042C2.34375 14.6771 2.69792 14.3229 3.125 14.3229H21.875C22.3021 14.3229 22.6562 14.6771 22.6562 15.1042C22.6562 15.5313 22.3021 15.8854 21.875 15.8854Z" fill="#292D32"/>
<path d="M21.875 21.0938H3.125C2.69792 21.0938 2.34375 20.7396 2.34375 20.3125C2.34375 19.8854 2.69792 19.5312 3.125 19.5312H21.875C22.3021 19.5312 22.6562 19.8854 22.6562 20.3125C22.6562 20.7396 22.3021 21.0938 21.875 21.0938Z" fill="#292D32"/>
</svg>
