<svg width="12" height="12" viewBox="0 0 12 12" fill="none" xmlns="http://www.w3.org/2000/svg">
<path d="M7.50098 11.375H4.50098C1.78598 11.375 0.625977 10.215 0.625977 7.5V4.5C0.625977 1.785 1.78598 0.625 4.50098 0.625H7.50098C10.216 0.625 11.376 1.785 11.376 4.5V7.5C11.376 10.215 10.216 11.375 7.50098 11.375ZM4.50098 1.375C2.19598 1.375 1.37598 2.195 1.37598 4.5V7.5C1.37598 9.805 2.19598 10.625 4.50098 10.625H7.50098C9.80598 10.625 10.626 9.805 10.626 7.5V4.5C10.626 2.195 9.80598 1.375 7.50098 1.375H4.50098Z" fill="#292D32"/>
<path d="M7.5 8.06492H5.04C3.985 8.06492 3.125 7.20493 3.125 6.14993C3.125 5.09493 3.985 4.23492 5.04 4.23492H8.425C8.63 4.23492 8.8 4.40492 8.8 4.60992C8.8 4.81492 8.63 4.98492 8.425 4.98492H5.04C4.4 4.98492 3.875 5.50493 3.875 6.14993C3.875 6.79493 4.395 7.31492 5.04 7.31492H7.5C7.705 7.31492 7.875 7.48492 7.875 7.68992C7.875 7.89492 7.705 8.06492 7.5 8.06492Z" fill="#292D32"/>
<path d="M7.71457 5.76003C7.61957 5.76003 7.52457 5.72504 7.44957 5.65004C7.30457 5.50504 7.30457 5.26503 7.44957 5.12003L7.96957 4.60003L7.44957 4.08004C7.30457 3.93504 7.30457 3.69503 7.44957 3.55003C7.59457 3.40503 7.83458 3.40503 7.97958 3.55003L8.76457 4.33503C8.90957 4.48003 8.90957 4.72004 8.76457 4.86504L7.97958 5.65004C7.90458 5.72004 7.80957 5.76003 7.71457 5.76003Z" fill="#292D32"/>
</svg>
