<svg width="12" height="12" viewBox="0 0 12 12" fill="none" xmlns="http://www.w3.org/2000/svg">
<path d="M6 7.87506C4.965 7.87506 4.125 7.03506 4.125 6.00006C4.125 4.96506 4.965 4.12506 6 4.12506C7.035 4.12506 7.875 4.96506 7.875 6.00006C7.875 7.03506 7.035 7.87506 6 7.87506ZM6 4.87506C5.38 4.87506 4.875 5.38006 4.875 6.00006C4.875 6.62006 5.38 7.12506 6 7.12506C6.62 7.12506 7.125 6.62006 7.125 6.00006C7.125 5.38006 6.62 4.87506 6 4.87506Z" fill="#292D32"/>
<path d="M7.60598 11.095C7.50098 11.095 7.39598 11.08 7.29098 11.055C6.98098 10.97 6.72098 10.775 6.55598 10.5L6.49598 10.4C6.20098 9.89002 5.79598 9.89002 5.50098 10.4L5.44598 10.495C5.28098 10.775 5.02098 10.975 4.71098 11.055C4.39598 11.14 4.07098 11.095 3.79598 10.93L2.93598 10.435C2.63098 10.26 2.41098 9.97502 2.31598 9.63002C2.22598 9.28502 2.27098 8.93002 2.44598 8.62502C2.59098 8.37002 2.63098 8.14002 2.54598 7.99502C2.46098 7.85002 2.24598 7.76502 1.95098 7.76502C1.22098 7.76502 0.625977 7.17002 0.625977 6.44002V5.56002C0.625977 4.83002 1.22098 4.23502 1.95098 4.23502C2.24598 4.23502 2.46098 4.15002 2.54598 4.00502C2.63098 3.86002 2.59598 3.63002 2.44598 3.37502C2.27098 3.07002 2.22598 2.71002 2.31598 2.37002C2.40598 2.02502 2.62598 1.74002 2.93598 1.56502L3.80098 1.07002C4.36598 0.735021 5.11098 0.930021 5.45098 1.50502L5.51098 1.60502C5.80598 2.11502 6.21098 2.11502 6.50598 1.60502L6.56098 1.51002C6.90098 0.930021 7.64598 0.735021 8.21598 1.07502L9.07598 1.57002C9.38098 1.74502 9.60098 2.03002 9.69598 2.37502C9.78598 2.72002 9.74098 3.07502 9.56598 3.38002C9.42098 3.63502 9.38098 3.86502 9.46598 4.01002C9.55098 4.15502 9.76598 4.24002 10.061 4.24002C10.791 4.24002 11.386 4.83502 11.386 5.56502V6.44502C11.386 7.17502 10.791 7.77002 10.061 7.77002C9.76598 7.77002 9.55098 7.85502 9.46598 8.00002C9.38098 8.14502 9.41598 8.37502 9.56598 8.63002C9.74098 8.93502 9.79098 9.29502 9.69598 9.63502C9.60598 9.98002 9.38598 10.265 9.07598 10.44L8.21098 10.935C8.02098 11.04 7.81598 11.095 7.60598 11.095ZM6.00098 9.24502C6.44598 9.24502 6.86098 9.52502 7.14598 10.02L7.20098 10.115C7.26098 10.22 7.36098 10.295 7.48098 10.325C7.60098 10.355 7.72098 10.34 7.82098 10.28L8.68598 9.78002C8.81598 9.70502 8.91598 9.58002 8.95598 9.43002C8.99598 9.28002 8.97598 9.12502 8.90098 8.99502C8.61598 8.50502 8.58098 8.00002 8.80098 7.61502C9.02098 7.23002 9.47598 7.01002 10.046 7.01002C10.366 7.01002 10.621 6.75502 10.621 6.43502V5.55502C10.621 5.24002 10.366 4.98002 10.046 4.98002C9.47598 4.98002 9.02098 4.76002 8.80098 4.37502C8.58098 3.99002 8.61598 3.48502 8.90098 2.99502C8.97598 2.86502 8.99598 2.71002 8.95598 2.56002C8.91598 2.41002 8.82098 2.29002 8.69098 2.21002L7.82598 1.71502C7.61098 1.58502 7.32598 1.66002 7.19598 1.88002L7.14098 1.97502C6.85598 2.47002 6.44098 2.75002 5.99598 2.75002C5.55098 2.75002 5.13598 2.47002 4.85098 1.97502L4.79598 1.87502C4.67098 1.66502 4.39098 1.59002 4.17598 1.71502L3.31098 2.21502C3.18098 2.29002 3.08098 2.41502 3.04098 2.56502C3.00098 2.71502 3.02098 2.87002 3.09598 3.00002C3.38098 3.49002 3.41598 3.99502 3.19598 4.38002C2.97598 4.76502 2.52098 4.98502 1.95098 4.98502C1.63098 4.98502 1.37598 5.24002 1.37598 5.56002V6.44002C1.37598 6.75502 1.63098 7.01502 1.95098 7.01502C2.52098 7.01502 2.97598 7.23502 3.19598 7.62002C3.41598 8.00502 3.38098 8.51002 3.09598 9.00002C3.02098 9.13002 3.00098 9.28502 3.04098 9.43502C3.08098 9.58502 3.17598 9.70502 3.30598 9.78502L4.17098 10.28C4.27598 10.345 4.40098 10.36 4.51598 10.33C4.63598 10.3 4.73598 10.22 4.80098 10.115L4.85598 10.02C5.14098 9.53002 5.55598 9.24502 6.00098 9.24502Z" fill="#292D32"/>
</svg>
